<?xml version="1.0" encoding="utf-8"?>
<!-- Generator: Adobe Illustrator 24.2.0, SVG Export Plug-In . SVG Version: 6.00 Build 0)  -->
<svg version="1.1" id="Layer_1" xmlns="http://www.w3.org/2000/svg" xmlns:xlink="http://www.w3.org/1999/xlink" x="0px" y="0px"
	 viewBox="0 0 90 90" style="enable-background:new 0 0 90 90;" xml:space="preserve">
<style type="text/css">
	.st0{fill:#D8001B;}
</style>
<path class="st0" d="M61.1,18.3c0.6-0.8,0-1.9-1-1.9H40.5c-0.5,0-0.9,0.3-1.1,0.7l-9.6,19.4c-0.4,0.8,0.2,1.7,1.1,1.7h4.4
	c0.9,0,1.5,0.9,1.1,1.7l-6.6,13.3c-0.4,0.8,0.2,1.7,1.1,1.7h4.2c0.9,0,1.5,0.9,1.1,1.7l-7.4,15.3c-0.6,1.2,1,2.3,1.9,1.4L49,54.8
	c0.8-0.8,0.2-2-0.8-2h-1.5c-1,0-1.6-1.2-0.9-1.9l9.7-12.2c0.6-0.8,0.1-1.9-0.9-1.9h-4.9c-1,0-1.5-1.1-1-1.9L61.1,18.3z"/>
</svg>
