<?xml version="1.0" encoding="utf-8"?>
<!-- Generator: Adobe Illustrator 24.2.0, SVG Export Plug-In . SVG Version: 6.00 Build 0)  -->
<svg version="1.1" id="Layer_1" xmlns="http://www.w3.org/2000/svg" xmlns:xlink="http://www.w3.org/1999/xlink" x="0px" y="0px"
	 viewBox="0 0 90 90" style="enable-background:new 0 0 90 90;" xml:space="preserve">
<style type="text/css">
	.st0{fill:#D8001B;}
</style>
<g>
	<path class="st0" d="M29,53.3l-6.8,13.3c-1.4,4.6,3.1,8.3,6.9,8.3s8.5-3.6,6.9-8.3L29,53.3z"/>
	<path class="st0" d="M67.9,37.6c-0.3-0.5-0.6-0.9-0.9-1.4l0,0l-0.1-0.1c-2.2-2.4-5.2-4.3-7.1-5.3c-7-3.6-16-5.3-19.3-5.3
		c-9.1,0-16.5,7.2-16.5,16.1c0,0.2,0,0.3,0.1,0.5h10.6c0-0.2,0.1-0.3,0.1-0.5c0-3,2.6-5.4,5.8-5.4c5.1,0,15.9,3.9,18,6.4v26.3
		c0,3,2.4,5.4,5.4,5.4c3,0,5.4-2.4,5.4-5.4V42C69.1,40.4,68.7,39,67.9,37.6z"/>
	<polygon class="st0" points="20.9,50.9 36.9,50.9 36.9,48.8 28.4,48.8 28.4,47.5 36.9,47.5 36.9,44.5 20.9,44.5 	"/>
	<path class="st0" d="M61.7,23.2l1,0.4c0,0.2-0.1,0.3-0.1,0.5v5.5c1.6,1,3.7,2.4,5.4,4.1v-9.9l0,0c-0.1-1.1-1.1-2-2.2-2h-0.4
		c-0.4,0-0.8,0.1-1.2,0.3L63,21.6l-14.8-6.4c0,0-1.8,1.1-1.3,2.8L61.7,23.2z"/>
</g>
</svg>
