<svg xmlns="http://www.w3.org/2000/svg" version="1.1" xmlns:xlink="http://www.w3.org/1999/xlink" xmlns:svgjs="http://svgjs.com/svgjs" width="1500" height="1500" preserveAspectRatio="none" viewBox="0 0 1500 1500"><g mask="url(&quot;#SvgjsMask1062&quot;)" fill="none"><rect width="1500" height="1500" x="0" y="0" fill="url(#SvgjsLinearGradient1063)"></rect><path d="M750 1872.85C1042.98 1869.35 1301.24 1715.26 1517.14 1517.14 1745.08 1308.01 1959.41 1058.99 1973.69 750 1988.48 430.09 1829.57 122.7 1591.5-91.5 1364.69-295.6 1053.93-378.36 750-351.16 471.13-326.2 248.74-147.16 46.71 46.71-161.27 246.29-381.66 462.19-397.6 750-414.16 1049.34-250.01 1326.1-35.74 1535.74 176.01 1742.94 453.76 1876.39 750 1872.85" fill="#1c538e"></path><path d="M750 1476.55C939.57 1474.28 1106.69 1374.58 1246.39 1246.39 1393.87 1111.06 1532.56 949.94 1541.8 750 1551.37 543 1448.54 344.1 1294.5 205.5 1147.74 73.43 946.66 19.89 750 37.49 569.56 53.63 425.65 169.49 294.93 294.93 160.36 424.07 17.75 563.77 7.43 750-3.28 943.69 102.94 1122.77 241.58 1258.42 378.6 1392.49 558.31 1478.84 750 1476.55" fill="#2774c6"></path><path d="M750 1080.25C836.17 1079.22 912.13 1033.9 975.63 975.63 1042.67 914.12 1105.71 840.88 1109.91 750 1114.26 655.91 1067.52 565.5 997.5 502.5 930.79 442.47 839.39 418.13 750 426.13 667.98 433.47 602.57 486.13 543.15 543.15 481.98 601.85 417.16 665.35 412.47 750 407.6 838.04 455.88 919.44 518.9 981.1 581.18 1042.04 662.87 1081.29 750 1080.25" fill="#488fdb"></path></g><defs><mask id="SvgjsMask1062"><rect width="1500" height="1500" fill="#ffffff"></rect></mask><linearGradient x1="0%" y1="0%" x2="100%" y2="100%" gradientUnits="userSpaceOnUse" id="SvgjsLinearGradient1063"><stop stop-color="#0e2a47" offset="0"></stop><stop stop-color="rgba(35, 124, 239, 1)" offset="1"></stop></linearGradient></defs></svg>