<svg id="Layer_1" data-name="Layer 1" xmlns="http://www.w3.org/2000/svg" viewBox="0 0 400 400"><defs><style>.cls-1,.cls-4{fill:#fff;}.cls-2{fill:#8cacb0;}.cls-3{fill:#00474f;}.cls-4{stroke:#fff;stroke-miterlimit:10;stroke-width:1.69px;}</style></defs><title>b</title><path class="cls-1" d="M200,393.33a1.69,1.69,0,0,1-1.21-.51l-8.45-8.69L181,391.91a1.69,1.69,0,0,1-1.08.39h-.18a1.7,1.7,0,0,1-1.16-.65l-7.47-9.59-10,6.78a1.69,1.69,0,0,1-1,.29,1.67,1.67,0,0,1-.35,0,1.7,1.7,0,0,1-1.09-.76l-6.41-10.31-10.68,5.71a1.69,1.69,0,0,1-2.29-.69l0-.06-5.26-11-11.25,4.55a1.69,1.69,0,0,1-2.2-.94l0-.06-4.22-11.43-11.58,3.39a1.69,1.69,0,0,1-2.1-1.14l0-.07-3-11.76-11.92,2.07h-.29a1.69,1.69,0,0,1-1.68-1.45l-1.74-12L71.45,344h-.11a1.69,1.69,0,0,1-1.69-1.69h0V329.91h-12A1.69,1.69,0,0,1,56,328.22q0-.08,0-.16l.82-12-12-1.65a1.69,1.69,0,0,1-1.46-1.89l0-.11,2.07-11.92-11.76-3a1.69,1.69,0,0,1-1.23-2.05l0-.06,3.31-11.67-11.33-4.14a1.7,1.7,0,0,1-1-2.18l0,0,4.48-11.29L17,260.8a1.69,1.69,0,0,1-.79-2.26l0-.05,5.63-10.77-10.18-6.37a1.69,1.69,0,0,1-.54-2.33l0,0,6.71-10.11L8.4,221.42A1.69,1.69,0,0,1,8.12,219l0,0,7.78-9.27-8.69-8.44a1.69,1.69,0,0,1,0-2.39l0,0,8.69-8.44-7.78-9.27a1.69,1.69,0,0,1,.2-2.38l0,0,9.52-7.45-6.71-10.11a1.69,1.69,0,0,1,.46-2.35l0,0,10.19-6.46-5.63-10.68a1.7,1.7,0,0,1,.72-2.29l0,0,10.89-5.29-4.48-11.29a1.7,1.7,0,0,1,1-2.2l0,0,11.34-4.14-3.31-11.67a1.7,1.7,0,0,1,1.17-2.1h0l11.76-3-2.07-11.9a1.7,1.7,0,0,1,1.35-2h.08l12-1.74L56,71.46a1.69,1.69,0,0,1,1.57-1.81H70.18v-12A1.69,1.69,0,0,1,71.87,56H72l12,.83,1.74-12a1.69,1.69,0,0,1,1.68-1.45h.29l11.88,2.12,3-11.76a1.67,1.67,0,0,1,2.1-1.21l11.59,3.31,4.23-11.35a1.69,1.69,0,0,1,2.16-1l.06,0L134,28.06l5.26-11a1.69,1.69,0,0,1,2.26-.78l.06,0,10.68,5.75,6.45-10.26a1.7,1.7,0,0,1,1.09-.74,1.65,1.65,0,0,1,.35,0,1.69,1.69,0,0,1,.94.29l10,6.7,7.45-9.52a1.69,1.69,0,0,1,1.15-.64h.18a1.7,1.7,0,0,1,1.08.39l9.37,7.79,8.45-8.7A1.7,1.7,0,0,1,200,6.79h0a1.69,1.69,0,0,1,1.22.52L209.6,16,219,8.22a1.7,1.7,0,0,1,1.07-.4h.18a1.69,1.69,0,0,1,1.15.64L228.81,18l10.1-6.71a1.7,1.7,0,0,1,2.37.51l6.48,10.28,10.67-5.71a1.7,1.7,0,0,1,2.3.71l0,0,5.28,11,11.25-4.55a1.71,1.71,0,0,1,2.23,1l4.13,11.33,11.68-3.31a1.69,1.69,0,0,1,2.09,1.15l0,.07,2.9,11.75,11.91-2.07h.29a1.69,1.69,0,0,1,1.68,1.45l1.74,12L328.51,56h.11a1.69,1.69,0,0,1,1.69,1.69h0V70.12h12A1.69,1.69,0,0,1,344,71.81s0,.08,0,.11l-.75,12.14,12,1.74a1.69,1.69,0,0,1,1.45,1.9l0,.1-2.15,11.91,11.75,3a1.7,1.7,0,0,1,1.22,2.07v0l-3.31,11.67,11.43,4.14a1.69,1.69,0,0,1,1,2.16l0,.07L372,134.06l10.84,5.3a1.69,1.69,0,0,1,.78,2.26l0,0L378,152.32l10.27,6.46a1.7,1.7,0,0,1,.52,2.35l0,0L382,171.26l9.6,7.44a1.69,1.69,0,0,1,.31,2.37l0,.06-7.78,9.27,8.69,8.44a1.7,1.7,0,0,1,0,2.4l0,0-8.69,8.44,7.78,9.27a1.7,1.7,0,0,1-.22,2.39l0,0-9.6,7.45,6.79,10.1a1.69,1.69,0,0,1-.46,2.35l-.05,0L378,247.72l5.63,10.77a1.69,1.69,0,0,1-.71,2.28l-.05,0L372,266.06l4.55,11.25a1.69,1.69,0,0,1-.93,2.2l-.07,0-11.43,4.14,3.31,11.67a1.69,1.69,0,0,1-1.15,2.09l-.06,0-11.75,3,2.15,11.91a1.7,1.7,0,0,1-1.35,2h-.07L344,316.06v12.76a1.69,1.69,0,0,1-1.69,1.69H329.88v12a1.69,1.69,0,0,1-1.69,1.69H328l-12.09-.83-1.74,12a1.69,1.69,0,0,1-1.68,1.45h-.29l-11.91-2.07-2.9,11.75a1.7,1.7,0,0,1-2.06,1.24l-.06,0-11.67-3.39-4.13,11.42a1.69,1.69,0,0,1-2.16,1l-.07,0L266,372.06l-5.27,11a1.69,1.69,0,0,1-2.26.78l-.06,0-10.68-5.75-6.46,10.27a1.69,1.69,0,0,1-1.08.75,1.64,1.64,0,0,1-.35,0,1.69,1.69,0,0,1-.95-.29l-10.09-6.73-7.45,9.6a1.7,1.7,0,0,1-1.16.65H220a1.69,1.69,0,0,1-1.08-.39l-9.36-7.78-8.35,8.68a1.69,1.69,0,0,1-1.22.52Z"/><path class="cls-1" d="M200,8.49l9.45,9.82L220,9.52l8.42,10.76,11.41-7.58,7.3,11.6,12.07-6.45,6,12.35L278,25.06l4.67,12.81,13.19-3.74,3.28,13.28,13.47-2.35,2,13.56,14.13-.93V71.81h13.65l-.84,13.67,13.56,2-2.43,13.47,13.28,3.37-3.74,13.19L375,122.14l-5.15,12.72,12.26,6-6.36,12.06,11.6,7.3-7.67,11.41,10.86,8.43-8.79,10.48,9.82,9.54-9.82,9.54,8.79,10.44-10.85,8.42,7.67,11.41-11.6,7.2,6.36,12.16-12.26,6L375,278l-12.91,4.68,3.74,13.19-13.28,3.37L355,312.68l-12.72,1.87v14.22H328.18v13.66l-13.66-.94-2,13.56-13.47-2.34L295.77,366l-13.19-3.84L278,375.06l-12.72-5.14-6,12.35-12.07-6.46-7.3,11.6-11.41-7.67L220,390.6l-10.57-8.79L200,391.63l-9.54-9.82-10.57,8.79-8.42-10.85-11.32,7.67-7.29-11.6-12.07,6.46-6-12.35-12.71,5.13-4.77-12.91L104.24,366l-3.37-13.28L87.4,355.06l-2-13.56-14.12.94V328.21H57.66l.93-13.66L45,312.68l2.33-13.47-13.28-3.37,3.75-13.18L25,278l5-12.72-12.25-6,6.36-12.16-11.51-7.2,7.58-11.41L9.48,220.06l8.79-10.48-9.81-9.52,9.82-9.54-8.8-10.46,10.76-8.41-7.58-11.41,11.51-7.3-6.36-12.06,12.25-6-5-12.74,12.82-4.68-3.74-13.19,13.28-3.37L45,87.44l13.56-2-.93-14.13H71.88V57.69l13.56.93,2-13.56,13.47,2.34,3.37-13.28,13.1,3.74,4.73-12.8,12.72,5.15,6-12.35,12.07,6.45,7.29-11.6,11.32,7.58,8.42-10.76,10.57,8.79L200,8.49M342.3,71.81h0M200,5.06a3.39,3.39,0,0,0-2.43,1l-7.35,7.57-8.16-6.79a3.39,3.39,0,0,0-2.17-.78h-.36a3.39,3.39,0,0,0-2.31,1.28l-6.48,8.28L162,9.88a3.39,3.39,0,0,0-4.7.93l0,.07-5.61,8.92-9.28-5a3.39,3.39,0,0,0-4.59,1.39l-.06.12-4.6,9.49-9.78-4A3.39,3.39,0,0,0,119,23.69l0,.11-3.68,9.88-10.06-2.82A3.39,3.39,0,0,0,101,33.19l0,.1-2.6,10.24L88,41.72a3.39,3.39,0,0,0-4,2.69l0,.17L82.54,55.06l-10.43-.72h-.23a3.39,3.39,0,0,0-3.39,3.39V68H57.66a3.39,3.39,0,0,0-3.39,3.39q0,.11,0,.22l.73,11L44.55,84.06a3.39,3.39,0,0,0-2.89,3.83l0,.17,1.8,10.37L33.25,101a3.39,3.39,0,0,0-2.45,4.12l0,.09L33.7,115.4,23.84,119a3.39,3.39,0,0,0-2,4.34l0,.09,3.89,9.8-9.43,4.61a3.39,3.39,0,0,0-1.56,4.53l0,.1,4.9,9.3-8.87,5.62a3.39,3.39,0,0,0-1,4.68l0,.06,5.84,8.8-8.29,6.48a3.39,3.39,0,0,0-.58,4.76l.07.09,6.77,8.07-7.56,7.35A3.39,3.39,0,0,0,6,202.47l.07.07,7.56,7.34L6.86,218a3.39,3.39,0,0,0,.42,4.78l.09.07,8.29,6.49-5.82,8.77a3.39,3.39,0,0,0,.93,4.7l.07,0,8.85,5.54-4.91,9.38a3.39,3.39,0,0,0,1.43,4.58l.09,0L25.73,267l-3.89,9.8a3.39,3.39,0,0,0,1.91,4.4l.09,0,9.86,3.6-2.88,10.16a3.39,3.39,0,0,0,2.34,4.19l.09,0,10.24,2.6-1.8,10.3a3.39,3.39,0,0,0,2.69,4l.19,0L55,317.48,54.31,328a3.39,3.39,0,0,0,3.15,3.61H67.93v10.83a3.39,3.39,0,0,0,3.39,3.39h.22l11-.73L84,355.55a3.39,3.39,0,0,0,3.83,2.88l.17,0,10.38-1.8,2.6,10.24a3.39,3.39,0,0,0,4.12,2.45l.12,0,10.06-3,3.68,9.94a3.39,3.39,0,0,0,4.34,2l.11,0,9.78-4,4.61,9.5a3.39,3.39,0,0,0,4.53,1.57l.12-.06,9.28-5,5.61,8.93a3.39,3.39,0,0,0,4.68,1.06l.09-.06,8.69-5.89,6.47,8.34a3.39,3.39,0,0,0,2.31,1.29H180a3.39,3.39,0,0,0,2.17-.78l8.16-6.78,7.36,7.57a3.39,3.39,0,0,0,2.43,1h0a3.39,3.39,0,0,0,2.43-1l7.26-7.55,8.15,6.77a3.39,3.39,0,0,0,2.17.78h.37a3.39,3.39,0,0,0,2.31-1.29l6.48-8.35,8.78,5.91a3.39,3.39,0,0,0,4.71-.92l.05-.08,5.62-8.93,9.28,5a3.39,3.39,0,0,0,4.59-1.39l.06-.12,4.61-9.5,9.78,4a3.39,3.39,0,0,0,4.41-1.87l0-.13,3.59-9.92,10.14,3a3.39,3.39,0,0,0,4.2-2.31l0-.13,2.52-10.21,10.35,1.8a3.39,3.39,0,0,0,3.92-2.77v-.08l1.45-10.54,10.52.72h.23a3.39,3.39,0,0,0,3.39-3.39h0V332.16H342.3a3.39,3.39,0,0,0,3.39-3.39h0V317.48l9.83-1.45a3.39,3.39,0,0,0,2.87-3.84l0-.16-1.87-10.36,10.22-2.59a3.39,3.39,0,0,0,2.45-4.12l0-.09-2.88-10.15,9.94-3.6a3.39,3.39,0,0,0,2-4.33l0-.13-4-9.79,9.42-4.6a3.39,3.39,0,0,0,1.56-4.53l0-.09-4.9-9.37,8.92-5.54a3.39,3.39,0,0,0,1.06-4.68l-.06-.09-5.9-8.79,8.35-6.48a3.39,3.39,0,0,0,.6-4.76l-.08-.1-6.77-8.07,7.56-7.34a3.39,3.39,0,0,0,.07-4.79l-.07-.07-7.56-7.35,6.77-8.07a3.39,3.39,0,0,0-.42-4.78l-.1-.08-8.35-6.47,5.9-8.79a3.39,3.39,0,0,0-.92-4.71l-.08-.05-8.94-5.63,4.9-9.29a3.39,3.39,0,0,0-1.41-4.58l-.1,0-9.42-4.6,4-9.79a3.39,3.39,0,0,0-1.87-4.41l-.13,0-9.94-3.6,2.88-10.15a3.39,3.39,0,0,0-2.34-4.19l-.09,0-10.22-2.59,1.88-10.26a3.39,3.39,0,0,0-2.68-4l-.17,0L345,82.57l.64-10.41q0-.17,0-.34a3.39,3.39,0,0,0-3.39-3.39H332V57.69a3.39,3.39,0,0,0-3.39-3.39h-.22l-11,.73L315.9,44.57a3.39,3.39,0,0,0-3.85-2.86H312l-10.35,1.8L299.1,33.31a3.39,3.39,0,0,0-4.1-2.48l-.11,0-10.16,2.88-3.59-9.86a3.39,3.39,0,0,0-4.33-2l-.13,0-9.78,4-4.61-9.5a3.39,3.39,0,0,0-4.53-1.57l-.12.06-9.28,5-5.62-8.92a3.39,3.39,0,0,0-4.68-1l-.06,0-8.8,5.84L222.72,7.5a3.39,3.39,0,0,0-2.31-1.28H220a3.39,3.39,0,0,0-2.17.78l-8.15,6.78-7.26-7.55A3.39,3.39,0,0,0,200,5.06Z"/><path class="cls-2" d="M200,393.33a1.69,1.69,0,0,1-1.21-.51l-8.45-8.69L181,391.91a1.69,1.69,0,0,1-1.08.39h-.18a1.7,1.7,0,0,1-1.16-.65l-7.47-9.59-10,6.78a1.7,1.7,0,0,1-1,.29,1.67,1.67,0,0,1-.35,0,1.69,1.69,0,0,1-1.09-.76l-6.41-10.31-10.68,5.71a1.69,1.69,0,0,1-2.29-.69l0-.06-5.26-11-11.25,4.55a1.69,1.69,0,0,1-2.2-.94l0-.06-4.22-11.43-11.58,3.39a1.69,1.69,0,0,1-2.1-1.14l0-.07-3-11.76-11.92,2.07h-.29a1.69,1.69,0,0,1-1.68-1.45l-1.74-12L71.45,344h-.11a1.69,1.69,0,0,1-1.69-1.69h0V329.91h-12A1.69,1.69,0,0,1,56,328.22q0-.08,0-.16l.82-12-12-1.65a1.69,1.69,0,0,1-1.46-1.89l0-.11,2.07-11.92-11.76-3a1.69,1.69,0,0,1-1.23-2.05l0-.06,3.31-11.67-11.33-4.14a1.7,1.7,0,0,1-1-2.18l0,0,4.48-11.29L17,260.8a1.69,1.69,0,0,1-.79-2.26l0-.05,5.63-10.77-10.18-6.37a1.69,1.69,0,0,1-.54-2.33l0,0,6.71-10.11L8.4,221.42A1.69,1.69,0,0,1,8.12,219l0,0,7.78-9.27-8.69-8.44a1.69,1.69,0,0,1,0-2.39l0,0,8.69-8.44-7.78-9.27a1.69,1.69,0,0,1,.2-2.38l0,0,9.52-7.45-6.71-10.11a1.69,1.69,0,0,1,.46-2.35l0,0,10.19-6.46-5.63-10.68a1.7,1.7,0,0,1,.72-2.29l0,0,10.89-5.29-4.48-11.29a1.7,1.7,0,0,1,1-2.2l0,0,11.34-4.14-3.31-11.67a1.7,1.7,0,0,1,1.17-2.1h0l11.76-3-2.07-11.9a1.7,1.7,0,0,1,1.35-2h.08l12-1.74L56,71.46a1.69,1.69,0,0,1,1.57-1.81H70.18v-12A1.69,1.69,0,0,1,71.87,56H72l12,.83,1.74-12a1.69,1.69,0,0,1,1.68-1.45h.29l11.88,2.12,3-11.76a1.67,1.67,0,0,1,2.1-1.21l11.59,3.31,4.23-11.35a1.69,1.69,0,0,1,2.16-1l.06,0L134,28.06l5.26-11a1.69,1.69,0,0,1,2.26-.78l.06,0,10.68,5.75,6.45-10.26a1.7,1.7,0,0,1,1.09-.74,1.65,1.65,0,0,1,.35,0,1.69,1.69,0,0,1,.94.29l10,6.7,7.45-9.52a1.69,1.69,0,0,1,1.15-.64h.18a1.7,1.7,0,0,1,1.08.39l9.37,7.79,8.45-8.7A1.7,1.7,0,0,1,200,6.79h0a1.69,1.69,0,0,1,1.22.52L209.6,16,219,8.22a1.7,1.7,0,0,1,1.07-.4h.18a1.69,1.69,0,0,1,1.15.64L228.81,18l10.1-6.71a1.7,1.7,0,0,1,2.37.51l6.48,10.28,10.67-5.71a1.7,1.7,0,0,1,2.3.71l0,0,5.28,11,11.25-4.55a1.71,1.71,0,0,1,2.23,1l4.13,11.33,11.68-3.31a1.69,1.69,0,0,1,2.09,1.15l0,.07,2.9,11.75,11.91-2.07h.29a1.69,1.69,0,0,1,1.68,1.45l1.74,12L328.51,56h.11a1.69,1.69,0,0,1,1.69,1.69h0V70.12h12A1.69,1.69,0,0,1,344,71.81s0,.08,0,.11l-.75,12.14,12,1.74a1.69,1.69,0,0,1,1.45,1.9l0,.1-2.15,11.91,11.75,3a1.7,1.7,0,0,1,1.22,2.07v0l-3.31,11.67,11.43,4.14a1.69,1.69,0,0,1,1,2.16l0,.07L372,134.06l10.84,5.3a1.69,1.69,0,0,1,.78,2.26l0,0L378,152.32l10.27,6.46a1.7,1.7,0,0,1,.52,2.35l0,0L382,171.26l9.6,7.44a1.69,1.69,0,0,1,.31,2.37l0,.06-7.78,9.27,8.69,8.44a1.7,1.7,0,0,1,0,2.4l0,0-8.69,8.44,7.78,9.27a1.7,1.7,0,0,1-.22,2.39l0,0-9.6,7.45,6.79,10.1a1.69,1.69,0,0,1-.46,2.35l-.05,0L378,247.72l5.63,10.77a1.69,1.69,0,0,1-.71,2.28l-.05,0L372,266.06l4.55,11.25a1.69,1.69,0,0,1-.93,2.2l-.07,0-11.43,4.14,3.31,11.67a1.69,1.69,0,0,1-1.15,2.09l-.06,0-11.75,3,2.15,11.91a1.7,1.7,0,0,1-1.35,2h-.07L344,316.06v12.76a1.69,1.69,0,0,1-1.69,1.69H329.88v12a1.69,1.69,0,0,1-1.69,1.69H328l-12.09-.83-1.74,12a1.69,1.69,0,0,1-1.68,1.45h-.29l-11.91-2.07-2.9,11.75a1.7,1.7,0,0,1-2.06,1.24l-.06,0-11.67-3.39-4.13,11.42a1.69,1.69,0,0,1-2.16,1l-.07,0L266,372.06l-5.27,11a1.69,1.69,0,0,1-2.26.78l-.06,0-10.68-5.75-6.46,10.27a1.69,1.69,0,0,1-1.08.75,1.64,1.64,0,0,1-.35,0,1.69,1.69,0,0,1-.95-.29l-10.09-6.73-7.45,9.6a1.7,1.7,0,0,1-1.16.65H220a1.69,1.69,0,0,1-1.08-.39l-9.36-7.78-8.35,8.68a1.69,1.69,0,0,1-1.22.52Zm0-359.2A163.74,163.74,0,0,0,156,40.06a168.94,168.94,0,0,0-39.68,16.71,165.81,165.81,0,0,0-59.55,59.54A168.72,168.72,0,0,0,40,156,166,166,0,0,0,155.91,360.06,163.55,163.55,0,0,0,200,366a165.84,165.84,0,0,0,117.36-48.65,169.15,169.15,0,0,0,20.24-24.59,165,165,0,0,0,15.27-28.19,168.64,168.64,0,0,0,9.68-31.17A166.68,166.68,0,0,0,360,156a168.78,168.78,0,0,0-16.72-39.68,165.88,165.88,0,0,0-59.54-59.54A169,169,0,0,0,244.1,40.06,163.75,163.75,0,0,0,200,34.13Z"/><path class="cls-1" d="M200,8.49l9.45,9.82L220,9.52l8.42,10.76,11.41-7.58,7.3,11.6,12.07-6.45,6,12.35L278,25.06l4.67,12.81,13.19-3.74,3.28,13.28,13.47-2.35,2,13.56,14.13-.93V71.81h13.65l-.84,13.67,13.56,2-2.43,13.47,13.28,3.37-3.74,13.19L375,122.14l-5.15,12.72,12.26,6-6.36,12.06,11.6,7.3-7.67,11.41,10.86,8.43-8.79,10.48,9.82,9.54-9.82,9.54,8.79,10.44-10.85,8.42,7.67,11.41-11.6,7.2,6.36,12.16-12.26,6L375,278l-12.91,4.68,3.74,13.19-13.28,3.37L355,312.69l-12.72,1.87v14.22H328.18v13.66l-13.66-.94-2,13.56-13.47-2.34L295.77,366l-13.19-3.84L278,375.06l-12.72-5.14-6,12.35-12.07-6.46-7.3,11.6-11.41-7.67L220,390.6l-10.57-8.79L200,391.63l-9.54-9.82-10.57,8.79-8.42-10.85-11.32,7.67-7.29-11.6-12.07,6.46-6-12.35-12.71,5.13-4.77-12.91L104.24,366l-3.37-13.28L87.4,355.06l-2-13.56-14.12.94V328.21H57.66l.93-13.66L45,312.69l2.33-13.47-13.28-3.37,3.75-13.19L25,278l5-12.72-12.25-6,6.36-12.16-11.51-7.2,7.58-11.41L9.48,220.06l8.79-10.48-9.81-9.52,9.82-9.54-8.8-10.46,10.76-8.41-7.58-11.41,11.51-7.3-6.36-12.06,12.25-6-5-12.74,12.82-4.68-3.74-13.19,13.28-3.37L45,87.44l13.56-2-.93-14.13H71.88V57.69l13.56.93,2-13.56,13.47,2.34,3.37-13.28,13.1,3.74,4.73-12.8,12.72,5.15,6-12.35,12.07,6.45,7.29-11.6,11.32,7.58,8.42-10.76,10.57,8.79L200,8.49m0,359.2a167.45,167.45,0,0,0,118.56-49.12A170,170,0,0,0,339,293.74a165.94,165.94,0,0,0,15.43-28.48,167.65,167.65,0,0,0-9.67-149.81A167.54,167.54,0,0,0,284.65,55.3a167.77,167.77,0,0,0-169.22,0,167.49,167.49,0,0,0-60.15,60.15A167.69,167.69,0,0,0,155.46,361.7a164.46,164.46,0,0,0,44.57,6M342.3,71.81h0M200,5.06a3.39,3.39,0,0,0-2.43,1l-7.35,7.57-8.16-6.79a3.39,3.39,0,0,0-2.17-.78h-.36a3.39,3.39,0,0,0-2.31,1.28l-6.48,8.28L162,9.88a3.39,3.39,0,0,0-4.7.93l0,.07-5.61,8.92-9.28-5a3.39,3.39,0,0,0-4.59,1.39l-.06.12-4.6,9.49-9.78-4A3.39,3.39,0,0,0,119,23.69l0,.11-3.68,9.88-10.06-2.82A3.39,3.39,0,0,0,101,33.19l0,.1-2.6,10.24L88,41.72a3.39,3.39,0,0,0-4,2.69l0,.17L82.54,55.06l-10.43-.72h-.23a3.39,3.39,0,0,0-3.39,3.39V68H57.66a3.39,3.39,0,0,0-3.39,3.39q0,.11,0,.22l.73,11L44.55,84.06a3.39,3.39,0,0,0-2.89,3.83l0,.17,1.8,10.37L33.25,101a3.39,3.39,0,0,0-2.45,4.12l0,.09L33.7,115.4,23.84,119a3.39,3.39,0,0,0-2,4.34l0,.09,3.89,9.8-9.43,4.61a3.39,3.39,0,0,0-1.56,4.53l0,.1,4.9,9.3-8.87,5.62a3.39,3.39,0,0,0-1,4.68l0,.06,5.84,8.8-8.29,6.48a3.39,3.39,0,0,0-.58,4.76l.07.09,6.77,8.07-7.56,7.35A3.39,3.39,0,0,0,6,202.47l.07.07,7.56,7.34L6.86,218a3.39,3.39,0,0,0,.42,4.78l.09.07,8.29,6.49-5.82,8.77a3.39,3.39,0,0,0,.93,4.7l.07,0,8.85,5.54-4.91,9.38a3.39,3.39,0,0,0,1.43,4.58l.09,0L25.73,267l-3.89,9.8a3.39,3.39,0,0,0,1.91,4.4l.09,0,9.86,3.6-2.88,10.16a3.39,3.39,0,0,0,2.34,4.19l.09,0,10.24,2.6-1.8,10.3a3.39,3.39,0,0,0,2.69,4l.19,0L55,317.48,54.31,328a3.39,3.39,0,0,0,3.15,3.61H67.93v10.83a3.39,3.39,0,0,0,3.39,3.39h.22l11-.73L84,355.55a3.39,3.39,0,0,0,3.83,2.88l.17,0,10.38-1.8,2.6,10.24a3.39,3.39,0,0,0,4.12,2.45l.12,0,10.06-3,3.68,9.94a3.39,3.39,0,0,0,4.34,2l.11,0,9.78-4,4.61,9.5a3.39,3.39,0,0,0,4.53,1.57l.12-.06,9.28-5,5.61,8.93a3.39,3.39,0,0,0,4.68,1.06l.09-.06,8.69-5.89,6.47,8.34a3.39,3.39,0,0,0,2.31,1.29H180a3.39,3.39,0,0,0,2.17-.78l8.16-6.78,7.36,7.57a3.39,3.39,0,0,0,2.43,1h0a3.39,3.39,0,0,0,2.43-1l7.26-7.55,8.15,6.77a3.39,3.39,0,0,0,2.17.78h.37a3.39,3.39,0,0,0,2.31-1.29l6.48-8.35,8.78,5.91a3.39,3.39,0,0,0,4.71-.92l.05-.08,5.62-8.93,9.28,5a3.39,3.39,0,0,0,4.59-1.39l.06-.12,4.61-9.5,9.78,4a3.39,3.39,0,0,0,4.41-1.87l0-.13,3.59-9.92,10.14,3a3.39,3.39,0,0,0,4.2-2.31l0-.13,2.52-10.21,10.35,1.8a3.39,3.39,0,0,0,3.92-2.77v-.08l1.45-10.54,10.52.72h.23a3.39,3.39,0,0,0,3.39-3.39h0V332.16H342.3a3.39,3.39,0,0,0,3.39-3.39h0V317.48l9.83-1.45a3.39,3.39,0,0,0,2.87-3.84l0-.16-1.87-10.36,10.22-2.59a3.39,3.39,0,0,0,2.45-4.12l0-.09-2.88-10.15,9.94-3.6a3.39,3.39,0,0,0,2-4.33l0-.13-4-9.79,9.42-4.6a3.39,3.39,0,0,0,1.56-4.53l0-.09-4.9-9.37,8.92-5.54a3.39,3.39,0,0,0,1.06-4.68l-.06-.09-5.9-8.79,8.35-6.48a3.39,3.39,0,0,0,.6-4.76l-.08-.1-6.77-8.07,7.56-7.34a3.39,3.39,0,0,0,.07-4.79l-.07-.07-7.56-7.35,6.77-8.07a3.39,3.39,0,0,0-.42-4.78l-.1-.08-8.35-6.47,5.9-8.79a3.39,3.39,0,0,0-.92-4.71l-.08-.05-8.94-5.63,4.9-9.29a3.39,3.39,0,0,0-1.41-4.58l-.1,0-9.42-4.6,4-9.79a3.39,3.39,0,0,0-1.87-4.41l-.13,0-9.94-3.6,2.88-10.15a3.39,3.39,0,0,0-2.34-4.19l-.09,0-10.22-2.59,1.88-10.26a3.39,3.39,0,0,0-2.68-4l-.17,0L345,82.57l.64-10.41q0-.17,0-.34a3.39,3.39,0,0,0-3.39-3.39H332V57.69a3.39,3.39,0,0,0-3.39-3.39h-.22l-11,.73L315.9,44.57a3.39,3.39,0,0,0-3.85-2.86H312l-10.35,1.8L299.1,33.31a3.39,3.39,0,0,0-4.1-2.48l-.11,0-10.16,2.88-3.59-9.86a3.39,3.39,0,0,0-4.33-2l-.13,0-9.78,4-4.61-9.5a3.39,3.39,0,0,0-4.53-1.57l-.12.06-9.28,5-5.62-8.92a3.39,3.39,0,0,0-4.68-1l-.06,0-8.8,5.84L222.72,7.5a3.39,3.39,0,0,0-2.31-1.28H220a3.39,3.39,0,0,0-2.17.78l-8.14,6.78-7.26-7.55A3.39,3.39,0,0,0,200,5.06Zm0,359.2a161.84,161.84,0,0,1-43.66-5.86,164.29,164.29,0,0,1-114.71-202A167.06,167.06,0,0,1,58.2,117.16a164.1,164.1,0,0,1,58.93-58.93,167.17,167.17,0,0,1,39.28-16.55,165.19,165.19,0,0,1,87.23,0,167.22,167.22,0,0,1,39.29,16.55,164.16,164.16,0,0,1,58.93,58.93,167,167,0,0,1,16.55,39.28,165,165,0,0,1,2.51,76.62,167,167,0,0,1-9.58,30.85,163.28,163.28,0,0,1-15.12,27.9,167.43,167.43,0,0,1-20,24.34A164.27,164.27,0,0,1,200,364.3Z"/><circle class="cls-3" cx="200.03" cy="200.06" r="102.24"/><path class="cls-2" d="M90.33,118.22q.63-1.22,1.15-2.14t1-1.67q.48-.7,1.25-1.65t1.56-1.8l13.25,9.13a28.64,28.64,0,0,1-2.27,5.56,48.13,48.13,0,0,1-2.56,4.26,22.58,22.58,0,0,1-5.4,5.7,15.56,15.56,0,0,1-5.94,2.67,13.65,13.65,0,0,1-6.16-.17,18.78,18.78,0,0,1-6-2.8,18.23,18.23,0,0,1-4.75-4.68,14.91,14.91,0,0,1-2.41-5.73,15.15,15.15,0,0,1,.23-6.42,20.25,20.25,0,0,1,3.13-6.72,33,33,0,0,1,2.87-3.62,23.43,23.43,0,0,1,3.79-3.24,11.75,11.75,0,0,1,2.48,2.63,19.11,19.11,0,0,1,1.63,2.78q-.83.65-1.48,1.21t-1.19,1.11q-.54.55-1,1.13t-1,1.29a8.13,8.13,0,0,0-1.59,6.55q.73,3.19,4.66,5.9t7,2.22q3.14-.47,5.57-4a9.93,9.93,0,0,0,.86-1.49Z"/><path class="cls-2" d="M120.07,110.72q-.8.86-1.49,1.53t-1.4,1.23q-.71.57-1.7,1.22t-2.28,1.39L102.35,84.37q.94-.92,1.77-1.7t1.74-1.5q.75-.6,1.69-1.23l2.17-1.44,28.41,17.78a37.44,37.44,0,0,1-3.69,3.45q-.79.63-1.63,1.19t-1.86,1.14l-5.33-3.61a24.79,24.79,0,0,1-1.78,2.09,18.27,18.27,0,0,1-3.83,3.08,24.19,24.19,0,0,1-2.26,1.21Zm-9-22.65,4.44,11q.81-.36,1.48-.73a9,9,0,0,0,1.3-.87,13,13,0,0,0,1.25-1.14A16.36,16.36,0,0,0,120.67,95Z"/><path class="cls-2" d="M132.07,64.19l4.07-2.1q1.86-1,4-1.84a33.56,33.56,0,0,1,5.31-1.65,16.18,16.18,0,0,1,5.18-.36,9.71,9.71,0,0,1,4.45,1.58A8.74,8.74,0,0,1,158.25,64a9.32,9.32,0,0,1-.19,7.66,13.4,13.4,0,0,1-1,1.8l12.4,9.67q-1.05.62-2.35,1.24t-2.37,1.06q-.93.38-2.2.8a22.5,22.5,0,0,1-2.27.63L148.16,76.13l.34-.38a5.64,5.64,0,0,0,.91-1.32,8.54,8.54,0,0,0,.71-1.88,9,9,0,0,0,.26-2.18,5.87,5.87,0,0,0-.43-2.21,3.71,3.71,0,0,0-2.52-2.46,5.79,5.79,0,0,0-3.6.36,6.81,6.81,0,0,0-.78.36,2.13,2.13,0,0,0-.39.25l9.49,23.44a24.87,24.87,0,0,1-8.22,3.33Z"/><path class="cls-2" d="M181.91,81.27q-1.14.29-2.08.47T178,82q-.9.09-2.09.09T173.23,82l8.22-32.5,2.41-.45q1.12-.2,2.27-.31,1-.09,2.09-.11l2.6,0L204.93,79a37.39,37.39,0,0,1-5,.88q-1,.1-2,.1c-.67,0-1.4,0-2.18-.06L193.26,74a25.24,25.24,0,0,1-2.63.79,18.31,18.31,0,0,1-4.89.49,24.33,24.33,0,0,1-2.55-.22Zm4.79-23.91L184.43,69c.58.09,1.13.16,1.64.2a9,9,0,0,0,1.57,0,12.67,12.67,0,0,0,1.67-.27,16.53,16.53,0,0,0,1.7-.5Z"/><path class="cls-2" d="M217.51,48.73q1.12,0,2,.14t1.75.26a17.44,17.44,0,0,1,1.83.48q.94.3,1.61.57l8,19.29,3.41-17q1.32.09,2.38.21t1.89.29q.84.17,1.76.44t1.92.66L237.87,85a13.3,13.3,0,0,1-1.49,0,16.51,16.51,0,0,1-4.25-.87l-1.38-.53-8.12-19.21-3.4,16.9a23,23,0,0,1-4-.4,23.71,23.71,0,0,1-3.92-1.19Z"/><path class="cls-2" d="M263.79,69.51l-7.47-3.88a13.34,13.34,0,0,1,3.18-6.12L282.35,71.4c-.18.64-.37,1.22-.57,1.75a13.17,13.17,0,0,1-.64,1.46,18.34,18.34,0,0,1-2,2.91l-7.46-3.88-11.42,22a31.23,31.23,0,0,1-4.12-1.69,30.72,30.72,0,0,1-3.79-2.42Z"/><path class="cls-2" d="M277,107.66a30.77,30.77,0,0,1-3.21-3.15l20-24.39q1.16.73,2.08,1.36t1.58,1.18q.7.58,1.52,1.36t1.72,1.76l-20,24.39A31.24,31.24,0,0,1,277,107.66Zm34.37-23.82q-.62-.68-1.53-1.51t-1.92-1.67a35.06,35.06,0,0,0-3.75-2.74l-7.62.78A11.41,11.41,0,0,0,297.78,80q.69.63,1.43,1.23a21.73,21.73,0,0,0,3,2.13Z"/><path class="cls-2" d="M291.65,121.1q-.85-.81-1.51-1.51t-1.21-1.42q-.56-.72-1.19-1.72t-1.36-2.29l31.86-10.41q.91,1,1.67,1.8t1.47,1.76q.58.76,1.21,1.71l1.42,2.19-18.16,28.16a37.32,37.32,0,0,1-3.4-3.74q-.62-.8-1.17-1.65t-1.12-1.87l3.68-5.28a24.8,24.8,0,0,1-2.07-1.81,18.67,18.67,0,0,1-1.7-1.9,18.27,18.27,0,0,1-1.33-2,24.12,24.12,0,0,1-1.18-2.28Zm22.77-8.72-11,4.29c.23.54.47,1,.71,1.49a9.06,9.06,0,0,0,.85,1.32,12.67,12.67,0,0,0,1.12,1.27,16.32,16.32,0,0,0,1.33,1.17Z"/><path class="cls-2" d="M68,233.25a22.17,22.17,0,0,1,6.47-1.43,14.11,14.11,0,0,1,5.91.85,13.32,13.32,0,0,1,5,3.41A18.34,18.34,0,0,1,89,242.31a18.15,18.15,0,0,1,1.32,7.09,13.37,13.37,0,0,1-1.52,5.82,14.16,14.16,0,0,1-3.9,4.53,22.2,22.2,0,0,1-5.82,3.18,21.84,21.84,0,0,1-6.43,1.42,14,14,0,0,1-5.85-.87,13,13,0,0,1-4.91-3.41,18.75,18.75,0,0,1-3.63-6.23,18.94,18.94,0,0,1-1.37-7.1,13,13,0,0,1,1.45-5.82,14,14,0,0,1,3.83-4.51A21.75,21.75,0,0,1,68,233.25Zm7.84,20.9q9-3.38,6.78-9.37T71.27,242q-4.51,1.69-6.17,4a5.5,5.5,0,0,0-.49,5.43Q66.88,257.51,75.82,254.15Z"/><path class="cls-2" d="M95.26,296.94a8.81,8.81,0,0,1-4.58,1.93,8.53,8.53,0,0,1-4.4-.85A16,16,0,0,1,82,294.94a42.66,42.66,0,0,1-4.18-4.8q-1.64-2.17-2.8-4t-2.47-4l25.24-19q1.36,1.37,2.87,3.07t3.33,4.12a32.33,32.33,0,0,1,2.9,4.54,14.24,14.24,0,0,1,1.49,4.33,7.86,7.86,0,0,1-.34,4,7.48,7.48,0,0,1-2.68,3.38,7,7,0,0,1-3.66,1.43,7.59,7.59,0,0,1-3.71-.55,12,12,0,0,1,.52,2.42,7.79,7.79,0,0,1-.12,2.49,7.44,7.44,0,0,1-1,2.44A8.57,8.57,0,0,1,95.26,296.94ZM88.41,281.1l-5.93,4.47c.12.21.28.45.48.74s.47.66.82,1.12a10.93,10.93,0,0,0,1.31,1.44,6.25,6.25,0,0,0,1.55,1.07,3.38,3.38,0,0,0,1.69.33,3.28,3.28,0,0,0,1.75-.72,3,3,0,0,0,1.39-3,9,9,0,0,0-1.82-3.77Zm5-3.78.85,1.13a6.25,6.25,0,0,0,2.65,2.23,2.92,2.92,0,0,0,2.86-.64,2.67,2.67,0,0,0,1-1.27,3.09,3.09,0,0,0,.12-1.45,4.64,4.64,0,0,0-.49-1.46,9.71,9.71,0,0,0-.83-1.33l-.44-.58a5.36,5.36,0,0,0-.48-.56Z"/><path class="cls-2" d="M118.27,288q1.17.72,2.09,1.35t1.58,1.17q.7.57,1.53,1.35t1.73,1.74l-15.55,19.26,9.06,7.31a15.32,15.32,0,0,1-1,1.7c-.3.46-.59.86-.87,1.2s-.66.78-1,1.17a16.73,16.73,0,0,1-1.49,1.32l-16-12.92Z"/><path class="cls-2" d="M129.4,334.59a30.8,30.8,0,0,1-3.77-2.46l14.84-27.86q1.28.48,2.3.93t1.78.85q.8.42,1.76,1t2,1.38l-14.83,27.86A31.19,31.19,0,0,1,129.4,334.59Z"/><path class="cls-2" d="M170.23,331.49q1.36.19,2.4.38t1.92.43q.83.23,2,.63t2.22.88l-4.24,15.52a28.71,28.71,0,0,1-6-.31,48.06,48.06,0,0,1-4.87-1,22.61,22.61,0,0,1-7.17-3.22,15.55,15.55,0,0,1-4.48-4.73,13.65,13.65,0,0,1-1.87-5.87,18.78,18.78,0,0,1,.66-6.6,18.19,18.19,0,0,1,2.85-6,14.91,14.91,0,0,1,4.61-4.17,15.14,15.14,0,0,1,6.13-1.9,20.26,20.26,0,0,1,7.38.73,33,33,0,0,1,4.37,1.51,23.4,23.4,0,0,1,4.3,2.5,11.77,11.77,0,0,1-1.66,3.21,19.21,19.21,0,0,1-2.08,2.46q-.89-.56-1.63-1t-1.44-.76q-.69-.33-1.41-.59t-1.54-.49a8.13,8.13,0,0,0-6.71.66q-2.78,1.74-4,6.34t.23,7.37q1.48,2.81,5.61,3.94a9.94,9.94,0,0,0,1.69.32Z"/><path class="cls-2" d="M196.38,352.11q-1.16.2-2.11.3c-.64.07-1.26.11-1.86.12s-1.3,0-2.09-.07-1.67-.16-2.65-.29l10.73-31.75q1.31-.16,2.44-.26t2.29-.13q1,0,2.09.05l2.6.17,11.69,31.41a37.3,37.3,0,0,1-5,.49q-1,0-2-.05t-2.17-.23l-2-6.11a25.13,25.13,0,0,1-2.69.58,18.28,18.28,0,0,1-4.91.11,24.62,24.62,0,0,1-2.53-.42ZM203,328.65l-3.18,11.42q.86.21,1.62.33a9.14,9.14,0,0,0,1.56.11,12.62,12.62,0,0,0,1.68-.14,16.14,16.14,0,0,0,1.73-.36Z"/><path class="cls-2" d="M228.06,324.33l-8.15,2.1a15.2,15.2,0,0,1-1.31-3.27,15.42,15.42,0,0,1-.41-3.41l24.93-6.44q.44.89.75,1.68a13.38,13.38,0,0,1,.5,1.52,18.49,18.49,0,0,1,.48,3.48l-8.15,2.1,6.19,24a31.07,31.07,0,0,1-4.2,1.49,30.42,30.42,0,0,1-4.44.74Z"/><path class="cls-2" d="M254.68,326.15a22.27,22.27,0,0,1-2.47-6.15,14.14,14.14,0,0,1-.12-6,13.29,13.29,0,0,1,2.55-5.47,18.37,18.37,0,0,1,5.55-4.65,18.17,18.17,0,0,1,6.79-2.45,13.35,13.35,0,0,1,6,.55,14.17,14.17,0,0,1,5.1,3.1,22.26,22.26,0,0,1,4.08,5.22,21.75,21.75,0,0,1,2.45,6.12,14,14,0,0,1,.09,5.92,13,13,0,0,1-2.56,5.4,21.45,21.45,0,0,1-12.34,7.11,13,13,0,0,1-6-.48,14,14,0,0,1-5.07-3A21.73,21.73,0,0,1,254.68,326.15ZM274,315q-4.81-8.35-10.36-5.16t-.87,11.62q2.4,4.17,5,5.43a5.51,5.51,0,0,0,5.44-.4Q278.79,323.28,274,315Z"/><path class="cls-2" d="M279.28,291.93l2.83-3.6q1.29-1.66,2.89-3.34a33.67,33.67,0,0,1,4.15-3.71,16.19,16.19,0,0,1,4.57-2.48,9.74,9.74,0,0,1,4.71-.4,8.72,8.72,0,0,1,4.59,2.48,9.33,9.33,0,0,1,3,7,13.72,13.72,0,0,1-.2,2.07l15.29,3.65q-.7,1-1.63,2.1t-1.72,1.95q-.69.73-1.67,1.64a22.59,22.59,0,0,1-1.8,1.52l-15.42-4.74.15-.48a5.64,5.64,0,0,0,.28-1.58,8.49,8.49,0,0,0-.14-2,8.87,8.87,0,0,0-.67-2.09,5.91,5.91,0,0,0-1.31-1.83,3.71,3.71,0,0,0-3.31-1.19,5.79,5.79,0,0,0-3.13,1.83,7.12,7.12,0,0,0-.56.65,2.18,2.18,0,0,0-.25.39l18.36,17.38a31,31,0,0,1-2.72,3.46,30.48,30.48,0,0,1-3.37,3Z"/><path class="cls-2" d="M330.66,279.14a30.58,30.58,0,0,1-2.67,3.63l-27-16.36q.55-1.25,1.05-2.25t.94-1.73q.47-.78,1.13-1.7t1.49-2l27,16.36A31,31,0,0,1,330.66,279.14Z"/><path class="cls-2" d="M341.94,255.89q-.21,1.16-.43,2.09c-.15.62-.32,1.22-.51,1.79s-.45,1.22-.77,1.95-.71,1.53-1.16,2.4l-26.3-20.77q.29-1.28.57-2.39c.19-.73.4-1.47.65-2.2s.45-1.25.75-2,.64-1.49,1-2.39l33.51-.46a37.72,37.72,0,0,1-1.23,4.9q-.32,1-.73,1.88t-.94,2l-6.43-.15a24.82,24.82,0,0,1-.36,2.72,18.29,18.29,0,0,1-.65,2.47,18.67,18.67,0,0,1-.9,2.2,24.47,24.47,0,0,1-1.25,2.24Zm-19.87-14.14,9.69,6.83q.48-.74.85-1.42a9,9,0,0,0,.62-1.44,12.83,12.83,0,0,0,.43-1.63,16.6,16.6,0,0,0,.24-1.75Z"/><path class="cls-4" d="M160.74,180.67,172.51,157H153.18a33,33,0,0,1-.53-5.86,34.1,34.1,0,0,1,.53-6.05h36.73l.88,1.66-14.15,26.07H177a13,13,0,0,1,6.2,1.46,14.52,14.52,0,0,1,4.66,3.86,17.51,17.51,0,0,1,2.9,5.52,20.55,20.55,0,0,1,1,6.35,28.91,28.91,0,0,1-1.93,11,21.85,21.85,0,0,1-5.36,7.91,22.67,22.67,0,0,1-8.08,4.78,30.72,30.72,0,0,1-10.11,1.61q-2.64,0-4.7-.15a29.91,29.91,0,0,1-4-.53,35.74,35.74,0,0,1-3.82-1q-1.93-.64-4.31-1.51a28.94,28.94,0,0,1,1-6.05,26.93,26.93,0,0,1,2.06-5.37q3.34,1.17,6.28,2a26.66,26.66,0,0,0,6.81.78,18.86,18.86,0,0,0,5.32-.73,12.1,12.1,0,0,0,4.35-2.25,10.84,10.84,0,0,0,2.94-3.86,13.28,13.28,0,0,0,1.1-5.66,8.64,8.64,0,0,0-3.51-7.22,10.47,10.47,0,0,0-3.69-1.71,17.77,17.77,0,0,0-4.39-.54q-1.49,0-3.07.1a12.33,12.33,0,0,0-3.08.58Z"/><path class="cls-4" d="M226.11,210a20.33,20.33,0,0,1-10.19-2.44,19.86,19.86,0,0,1-7.07-6.83,33.06,33.06,0,0,1-4.13-10.4,59.33,59.33,0,0,1-1.36-13.13A58.22,58.22,0,0,1,204.76,164,33.13,33.13,0,0,1,209,153.53a19.66,19.66,0,0,1,17.49-9.37,20,20,0,0,1,10.19,2.49,20.69,20.69,0,0,1,7.12,6.88A31.77,31.77,0,0,1,247.9,164a62,62,0,0,1,1.32,13.18,57.62,57.62,0,0,1-1.41,13.13,33.16,33.16,0,0,1-4.22,10.4,20,20,0,0,1-7.2,6.83A20.83,20.83,0,0,1,226.11,210Zm.18-11.72q4.48,0,7-5.13t2.5-16q0-10.84-2.5-16t-7-5.13q-4.57,0-7.16,5.13t-2.59,16q0,10.84,2.64,16T226.29,198.25Z"/><path class="cls-1" d="M154,235.37q8.68,0,13.19,4.34t4.5,12.93q0,8.73-4.59,12.8t-13.6,4.07q-2.3,0-4.43-.21t-4.2-.48V236l1.75-.21c.71-.07,1.47-.14,2.3-.21s1.68-.12,2.55-.16S153.14,235.37,154,235.37Zm-1,26.92a5.28,5.28,0,0,0,.74,0h.87a12.63,12.63,0,0,0,3.38-.44,6.32,6.32,0,0,0,2.73-1.54,7.55,7.55,0,0,0,1.82-3,14.72,14.72,0,0,0,.67-4.82,14.51,14.51,0,0,0-.69-4.82,8.13,8.13,0,0,0-1.81-3.06,6.47,6.47,0,0,0-2.64-1.61,10.38,10.38,0,0,0-3.17-.48c-.61,0-1.06,0-1.33,0l-.55,0Z"/><path class="cls-1" d="M185.44,269.23a24.54,24.54,0,0,1-4.09-.41V236q1.24-.19,2.25-.28t1.79-.09q.83,0,1.86.09t2.23.28v32.8A25,25,0,0,1,185.44,269.23Zm10.43-41.81a19,19,0,0,0-2-.21q-1.13-.07-2.32-.07a28.4,28.4,0,0,0-4.23.28l-4.92,5.65a9.12,9.12,0,0,0,1.63.23q.85,0,1.72,0a17.36,17.36,0,0,0,3.35-.28Z"/><path class="cls-1" d="M205.47,268.87q-1.06.18-1.93.28a16.4,16.4,0,0,1-1.7.09,18.77,18.77,0,0,1-1.91-.11q-1.08-.12-2.41-.35L207.81,236q1.19-.14,2.23-.23t2.09-.09q.87,0,1.91.09l2.37.23,10.15,32.85a30,30,0,0,1-4.59.41c-.61,0-1.23,0-1.84-.09s-1.27-.15-2-.28l-1.75-6.39a20.35,20.35,0,0,1-2.46.55,15.1,15.1,0,0,1-2.32.18,14.93,14.93,0,0,1-2.16-.16,19.85,19.85,0,0,1-2.3-.48Zm6.43-24.26-3.08,11.81c.52.15,1,.28,1.47.37a7.31,7.31,0,0,0,1.42.14,10.18,10.18,0,0,0,1.54-.11,13.38,13.38,0,0,0,1.59-.35Z"/><path class="cls-1" d="M247.46,248.79q1.93.78,3.47,1.59a10.41,10.41,0,0,1,2.64,1.93,7.68,7.68,0,0,1,1.7,2.71,12.13,12.13,0,0,1-.25,8.22,9.12,9.12,0,0,1-2.5,3.36,11.55,11.55,0,0,1-4.07,2.16,18.42,18.42,0,0,1-5.54.76,24.61,24.61,0,0,1-5-.46,31.28,31.28,0,0,1-4.71-1.42,26.1,26.1,0,0,1,.64-3.42q.46-1.81,1.1-3.7a19,19,0,0,0,7.35,1.84,7.74,7.74,0,0,0,3.65-.71,2.56,2.56,0,0,0,1.31-2.46,2.7,2.7,0,0,0-.28-1.26,2.82,2.82,0,0,0-.74-.9,4.72,4.72,0,0,0-1-.62q-.57-.25-1.17-.48l-2.57-1a16.47,16.47,0,0,1-3-1.42,9.65,9.65,0,0,1-2.32-2,8.19,8.19,0,0,1-1.49-2.6,10.16,10.16,0,0,1-.53-3.45,10.63,10.63,0,0,1,.83-4.32,9,9,0,0,1,2.32-3.19,9.93,9.93,0,0,1,3.61-2,15.71,15.71,0,0,1,4.73-.67,21.94,21.94,0,0,1,4.53.46,37.25,37.25,0,0,1,4.66,1.33,23.62,23.62,0,0,1-.67,3.24,20.56,20.56,0,0,1-1.22,3.33q-1.2-.5-2.8-1.06a12.41,12.41,0,0,0-4-.55,6.79,6.79,0,0,0-1.4.14,4.09,4.09,0,0,0-1.2.43,2.33,2.33,0,0,0-.85.83,2.47,2.47,0,0,0-.32,1.31,2.29,2.29,0,0,0,.87,2,8.71,8.71,0,0,0,2.07,1.1Z"/></svg>