<svg id="Layer_1" data-name="Layer 1" xmlns="http://www.w3.org/2000/svg" viewBox="0 0 400 400"><defs><style>.cls-1{fill:#fff;}.cls-2{fill:#ea5452;}</style></defs><title>b</title><path class="cls-1" d="M200,394.1C93,394.1,5.9,307,5.9,200S93,5.9,200,5.9,394.1,93,394.1,200,307,394.1,200,394.1Z"/><path class="cls-2" d="M200,9.8C305,9.8,390.2,95,390.2,200S305,390.2,200,390.2,9.8,305,9.8,200,95,9.8,200,9.8M200,2C90.8,2,2,90.8,2,200S90.8,398,200,398s198-88.8,198-198S309.2,2,200,2Z"/><circle class="cls-1" cx="200" cy="200" r="117.5"/><circle class="cls-2" cx="200" cy="200" r="117.5"/><path class="cls-2" d="M67.3,218.3c.3.7.6,1.4.8,1.9a15.43,15.43,0,0,1,.5,1.7,10.79,10.79,0,0,1,.3,1.9,11.56,11.56,0,0,1,.1,1.7L52.5,241.8l19.3-4.6c.3.8.6,1.6.9,2.3s.4,1.3.6,1.9l.3,1.8c.1.7.1,1.3.2,2.1l-35.2,8.4a6.45,6.45,0,0,1-.6-1.4,11.69,11.69,0,0,1-.6-2A22.31,22.31,0,0,1,37,248c0-.7-.1-1.2-.1-1.5l16.4-16.3L34,234.8a26.61,26.61,0,0,1-1.4-3.9,17.27,17.27,0,0,1-.5-4.2Z"/><path class="cls-2" d="M60,260.7a31.53,31.53,0,0,1,7-2.9,17.09,17.09,0,0,1,6.7-.4,12.32,12.32,0,0,1,5.9,2.5,16.18,16.18,0,0,1,4.8,5.7,16,16,0,0,1,2.3,7.1,13.3,13.3,0,0,1-1,6.3,16.51,16.51,0,0,1-3.8,5.5,26.08,26.08,0,0,1-6.1,4.5,26.94,26.94,0,0,1-7,2.8,14.87,14.87,0,0,1-6.6.3,13.38,13.38,0,0,1-5.9-2.5,17.28,17.28,0,0,1-4.8-5.7,17.7,17.7,0,0,1-2.4-7,13.45,13.45,0,0,1,.9-6.3,16.18,16.18,0,0,1,3.7-5.5A47.19,47.19,0,0,1,60,260.7Zm11.3,20c6.4-3.6,8.5-7.3,6.4-11.1s-6.5-4-12.9-.4c-3.2,1.8-5.3,3.6-6.4,5.5a5.56,5.56,0,0,0,.1,5.7C60.7,284.1,64.9,284.2,71.3,280.7Z"/><path class="cls-2" d="M102.1,324.3l20.8-14.8a23.92,23.92,0,0,1,2.1,1.3l2.1,1.5a17.72,17.72,0,0,1,1.6,1.4c.6.6,1.2,1.1,1.6,1.6L98.5,336.2c-.8-.5-1.5-.9-2.1-1.3s-1.3-.9-1.8-1.3a20,20,0,0,1-1.6-1.4l-1.8-1.8,13.3-35.7c.5.3,1.2.7,2,1.2s1.6,1.1,2.3,1.6,1.2,1,1.8,1.6,1.2,1.1,1.6,1.6Z"/><path class="cls-2" d="M145.8,341.5a18.49,18.49,0,0,1-2.1,3.4l-9.1-4.1-3,6.5,11.8,5.4a17.85,17.85,0,0,1-1.2,3.7,15.68,15.68,0,0,1-2.1,3.4L120,350.6l15.1-33.1,19.8,9.1c-.2.7-.4,1.4-.6,2a8.65,8.65,0,0,1-.7,1.7,27.13,27.13,0,0,1-2,3.5l-11.5-5.3-2.3,5.1,9.1,4.1A12.22,12.22,0,0,1,145.8,341.5Z"/><path class="cls-2" d="M162.1,329.1c1.7.2,3.2.3,4.7.4a40,40,0,0,1,4.5.6,34.67,34.67,0,0,1,5.5,1.6,14.19,14.19,0,0,1,4.6,2.8,10.55,10.55,0,0,1,2.9,4.2,11.44,11.44,0,0,1,.3,5.9,10.07,10.07,0,0,1-1.1,3.2,14.31,14.31,0,0,1-1.6,2.4,10.08,10.08,0,0,1-1.9,1.7,13,13,0,0,1-1.9,1.1l4.9,16.8c-.8,0-1.7-.1-2.7-.2s-1.9-.3-2.6-.4a11.2,11.2,0,0,1-2.3-.6,12.35,12.35,0,0,1-2.3-.8L169,350.2l.5-.2a6.56,6.56,0,0,0,1.5-.7,9.57,9.57,0,0,0,1.7-1.4,17.35,17.35,0,0,0,1.5-2,8.54,8.54,0,0,0,.9-2.4,4.46,4.46,0,0,0-.7-3.9,5.38,5.38,0,0,0-3.3-1.8,2.77,2.77,0,0,0-.9-.1h-.5l-5.5,28.4a26.76,26.76,0,0,1-4.5-.4,25.84,25.84,0,0,1-4.4-1.3Z"/><path class="cls-2" d="M200.8,370.6a27.66,27.66,0,0,1-4.6-.4l-.1-36.1c.9-.1,1.8-.2,2.5-.3a14.09,14.09,0,0,1,2-.1,16.23,16.23,0,0,1,2.1.1l2.5.3.1,36.1A27.44,27.44,0,0,1,200.8,370.6Z"/><path class="cls-2" d="M214.3,333.6l21.4-3.9c.3.7.5,1.4.7,2a11.63,11.63,0,0,1,.4,1.8,22.51,22.51,0,0,1,.3,4l-12.4,2.3,1.1,6.1,9.8-1.8a18.13,18.13,0,0,1,1.2,3.8,23.31,23.31,0,0,1,.3,4l-9.8,1.8,2.5,14c-1.7.6-3.2,1-4.4,1.3a29.16,29.16,0,0,1-4.6.4Z"/><path class="cls-2" d="M259.8,359.9a46.4,46.4,0,0,1-4.5,1.2l-12.7-33.8c.8-.5,1.6-.8,2.3-1.2s1.3-.6,1.9-.8,1.2-.4,2-.6,1.6-.4,2.5-.6L264,357.9C262.3,358.8,260.9,359.4,259.8,359.9Z"/><path class="cls-2" d="M276.4,331.7c3.8,6.1,8.2,7.5,13.5,4.3a16.41,16.41,0,0,0,2.5-1.9,25.32,25.32,0,0,0,2.5-2.8,29.35,29.35,0,0,1,5.9,5.2c-.7.8-1.3,1.6-1.9,2.2s-1.2,1.2-1.8,1.8-1.2,1-1.9,1.5-1.3.9-2,1.3a21,21,0,0,1-7.3,2.9,14.14,14.14,0,0,1-6.8-.4,16.24,16.24,0,0,1-6-3.3,23.2,23.2,0,0,1-4.9-5.8,22.15,22.15,0,0,1-2.9-7,17.93,17.93,0,0,1-.2-6.9,16.46,16.46,0,0,1,8.2-11.4,28.23,28.23,0,0,1,4.2-2.2,25.28,25.28,0,0,1,5-1.4,13.68,13.68,0,0,1,1.5,3.8,29.9,29.9,0,0,1,.6,3.6c-.7.2-1.3.3-1.9.5s-1.1.3-1.6.5-1,.4-1.4.6a10,10,0,0,0-1.4.8,8.2,8.2,0,0,0-4.1,5.8C273.7,325.9,274.5,328.6,276.4,331.7Z"/><path class="cls-2" d="M317.6,323.1c-.5.7-.9,1.3-1.3,1.8l-1.2,1.5c-.4.5-1,.9-1.6,1.5s-1.3,1.1-2.1,1.7l-18.1-33.3c.5-.7,1.1-1.4,1.5-2s1-1.2,1.6-1.8,1-1,1.6-1.5,1.3-1.1,2-1.7l34,16.8a29.36,29.36,0,0,1-3.2,4,19.2,19.2,0,0,1-1.5,1.4,14.1,14.1,0,0,1-1.8,1.4l-6.4-3.4a25.16,25.16,0,0,1-1.5,2.4,16.32,16.32,0,0,1-1.7,2,9.35,9.35,0,0,1-1.8,1.6c-.7.5-1.4,1-2.2,1.5Zm-14.3-23.6,7,11.5c.5-.3,1-.6,1.4-.9a12,12,0,0,0,1.2-1.1,12.67,12.67,0,0,0,1.1-1.3c.3-.5.7-1,1-1.5Z"/><path class="cls-2" d="M314.9,267.4c3.1-5.7,6.8-9.3,11.2-10.8s9.4-.7,14.9,2.3,9,6.8,10,11.2-.1,9.6-3.3,15.6c-.8,1.5-1.7,2.9-2.6,4.3l-2.7,3.9-31.8-17.2c.2-.5.4-1.1.7-1.8s.6-1.5,1-2.4.8-1.7,1.2-2.6A15.71,15.71,0,0,0,314.9,267.4Zm25.6,15.1a4.35,4.35,0,0,0,.4-.7,4.05,4.05,0,0,1,.5-.9,17.83,17.83,0,0,0,1.4-3.6,6.92,6.92,0,0,0,0-3.5,8.35,8.35,0,0,0-1.9-3.4,15.49,15.49,0,0,0-4.3-3.2,16.07,16.07,0,0,0-5-1.8,8.28,8.28,0,0,0-3.9.2,7.77,7.77,0,0,0-3,1.8,10.59,10.59,0,0,0-2.2,2.9c-.3.6-.6,1-.7,1.3a1.63,1.63,0,0,1-.3.6Z"/><path class="cls-2" d="M344.9,248.7a29.71,29.71,0,0,1-7.1-2.5,16.61,16.61,0,0,1-5.2-4.1,13.1,13.1,0,0,1-2.8-5.8,16.86,16.86,0,0,1,.1-7.4,17.7,17.7,0,0,1,2.9-6.8,14.73,14.73,0,0,1,4.9-4.1,16.81,16.81,0,0,1,6.5-1.6,32.5,32.5,0,0,1,7.5.6,29.71,29.71,0,0,1,7.1,2.5,17.84,17.84,0,0,1,5.2,4.1,13.27,13.27,0,0,1,2.8,5.7,17,17,0,0,1-.2,7.4,17.7,17.7,0,0,1-2.9,6.8,12.85,12.85,0,0,1-4.9,4.1,16.32,16.32,0,0,1-6.4,1.6A27.6,27.6,0,0,1,344.9,248.7Zm4.8-22.4c-7.2-1.5-11.2-.2-12.2,4.1s2.2,7.3,9.4,8.9c3.6.8,6.4.8,8.4.1A5.46,5.46,0,0,0,359,235C359.9,230.8,356.8,227.8,349.7,226.3Z"/><path class="cls-2" d="M35.2,149.1c.2-.8.5-2,.9-3.5a50.84,50.84,0,0,1,2-5.8,33.33,33.33,0,0,1,2.5-5,15.39,15.39,0,0,1,3.6-4,10.58,10.58,0,0,1,5-2,12.73,12.73,0,0,1,6.6,1.1,14.44,14.44,0,0,1,5.2,3.2,11.07,11.07,0,0,1,2.5,4.1,11.83,11.83,0,0,1,.4,4.6,19.1,19.1,0,0,1-1.2,4.7,14.17,14.17,0,0,1-.8,1.8,13.09,13.09,0,0,1-.7,1.3l11,4.3q-.3,1.35-.6,2.4c-.2.7-.4,1.3-.6,1.9a19.55,19.55,0,0,1-2.1,4ZM54.4,147a3.78,3.78,0,0,0,.5-.8,6.12,6.12,0,0,0,.5-1.2,5,5,0,0,0,.1-3.8,4.74,4.74,0,0,0-3.1-2.7,6.16,6.16,0,0,0-2.5-.5,4.23,4.23,0,0,0-2,.5,4,4,0,0,0-1.5,1.4,11.4,11.4,0,0,0-1,1.9,4.87,4.87,0,0,0-.3.7c-.1.3-.2.5-.3.8Z"/><path class="cls-2" d="M52.7,110.4c.8-1.5,1.6-2.8,2.3-4.1a35.23,35.23,0,0,1,2.5-3.8,38.08,38.08,0,0,1,3.7-4.3,16.09,16.09,0,0,1,4.5-3,9.62,9.62,0,0,1,5-.8,11,11,0,0,1,5.5,2.2,13.94,13.94,0,0,1,2.5,2.3,12.75,12.75,0,0,1,1.5,2.5,7.28,7.28,0,0,1,.7,2.4,18,18,0,0,1,.2,2.2l17.4,2.6c-.4.7-.8,1.5-1.3,2.4a21,21,0,0,1-1.5,2.2,20.5,20.5,0,0,1-1.5,1.9,14.88,14.88,0,0,1-1.7,1.8l-17.7-3.7.1-.5a4.82,4.82,0,0,0,0-1.7,8.3,8.3,0,0,0-.6-2.1,12,12,0,0,0-1.2-2.2,7.69,7.69,0,0,0-1.8-1.8,4.45,4.45,0,0,0-3.8-1,5.39,5.39,0,0,0-3,2.2c-.2.3-.4.5-.5.7l-.2.4,23.5,16.9A21.08,21.08,0,0,1,85,128a28.88,28.88,0,0,1-3.1,3.5Z"/><path class="cls-2" d="M90,91.6a29.46,29.46,0,0,1-4-6.4,15.74,15.74,0,0,1-1.5-6.5,14.4,14.4,0,0,1,1.4-6.3,17.66,17.66,0,0,1,4.7-5.7,18.11,18.11,0,0,1,6.5-3.5,13.86,13.86,0,0,1,6.4-.1,17.61,17.61,0,0,1,6.1,2.8,26.83,26.83,0,0,1,5.5,5.2,29.46,29.46,0,0,1,4,6.4,19.17,19.17,0,0,1,1.5,6.4,13.69,13.69,0,0,1-1.4,6.2,17.81,17.81,0,0,1-4.8,5.7,16.68,16.68,0,0,1-6.5,3.5,13.9,13.9,0,0,1-6.4.2,16.15,16.15,0,0,1-6-2.7A26.83,26.83,0,0,1,90,91.6Zm17.7-14.5C103,71.4,99,70,95.6,72.8s-2.9,7.1,1.8,12.8c2.3,2.8,4.5,4.6,6.5,5.3a5.52,5.52,0,0,0,5.6-1.1C112.9,87,112.3,82.8,107.7,77.1Z"/><path class="cls-2" d="M118.8,48.2l19.8-9.1,1.2,1.8c.3.6.6,1.1.9,1.6a20.87,20.87,0,0,1,1.3,3.8l-11.5,5.3,2.6,5.6,9-4.2a22.56,22.56,0,0,1,2.1,3.4,20.87,20.87,0,0,1,1.3,3.8l-9,4.2,6,12.9a29.79,29.79,0,0,1-3.9,2.3,36.93,36.93,0,0,1-4.4,1.5Z"/><path class="cls-2" d="M176.6,47.1a23.52,23.52,0,0,1,.4,4l-9.7,2.1,1.5,7,12.7-2.7a20.53,20.53,0,0,1,1.3,3.7,17,17,0,0,1,.4,4l-21.6,4.6L154,34.2l21.3-4.6c.3.7.5,1.4.7,2a12.09,12.09,0,0,1,.5,1.8,21.53,21.53,0,0,1,.4,4L164.4,40l1.2,5.4,9.7-2.1A28.68,28.68,0,0,1,176.6,47.1Z"/><path class="cls-2" d="M206.3,42.4q2.1.9,3.9,1.8a10.58,10.58,0,0,1,2.9,2.2,8.3,8.3,0,0,1,1.8,3,12.87,12.87,0,0,1,.6,4.2,10.61,10.61,0,0,1-1.1,4.8,10.05,10.05,0,0,1-2.9,3.6,13.26,13.26,0,0,1-4.6,2.3,20,20,0,0,1-6.2.7,30,30,0,0,1-5.6-.6,35.65,35.65,0,0,1-5.3-1.7,32.49,32.49,0,0,1,.8-3.8c.4-1.3.8-2.7,1.3-4a22.9,22.9,0,0,0,8.2,2.2,9.16,9.16,0,0,0,4.1-.7,2.75,2.75,0,0,0,1.5-2.7,3.19,3.19,0,0,0-.3-1.4,3.92,3.92,0,0,0-.8-1,4.13,4.13,0,0,0-1.1-.7c-.4-.2-.9-.4-1.3-.6l-2.9-1.1a25.31,25.31,0,0,1-3.3-1.6,11.22,11.22,0,0,1-2.6-2.2,9,9,0,0,1-1.6-2.9,11.29,11.29,0,0,1-.5-3.8,11.23,11.23,0,0,1,1-4.7,9.19,9.19,0,0,1,2.7-3.5,12.2,12.2,0,0,1,4.1-2.1,15.16,15.16,0,0,1,5.3-.6,21.57,21.57,0,0,1,5.1.6,43.27,43.27,0,0,1,5.2,1.6,29.81,29.81,0,0,1-.8,3.6,30,30,0,0,1-1.4,3.6c-.9-.4-1.9-.8-3.1-1.2a14.17,14.17,0,0,0-4.5-.7,8.08,8.08,0,0,0-1.6.1,3.36,3.36,0,0,0-1.4.5,2.84,2.84,0,0,0-1,.9,3.26,3.26,0,0,0-.4,1.4,2.66,2.66,0,0,0,.9,2.2,9.92,9.92,0,0,0,2.3,1.3Z"/><path class="cls-2" d="M228.5,67.8a30.71,30.71,0,0,1-4.4-1.4L231.6,31c.9.1,1.8.1,2.5.2s1.4.2,2,.3a19.45,19.45,0,0,1,2,.5c.7.2,1.5.5,2.4.8L233,68.3A17.47,17.47,0,0,1,228.5,67.8Z"/><path class="cls-2" d="M249,53.5a26.35,26.35,0,0,1,4-6.5,16.4,16.4,0,0,1,5.2-4.3,13.21,13.21,0,0,1,6.2-1.5,17.5,17.5,0,0,1,7.3,1.7,16.56,16.56,0,0,1,6,4.3,12.91,12.91,0,0,1,2.9,5.7,16.64,16.64,0,0,1,.2,6.7,28.34,28.34,0,0,1-2.2,7.2,26.62,26.62,0,0,1-3.9,6.4,16.84,16.84,0,0,1-5.1,4.2,13.21,13.21,0,0,1-6.2,1.5,18.75,18.75,0,0,1-7.2-1.7,17.94,17.94,0,0,1-6.1-4.3,13.33,13.33,0,0,1-3-5.6,16.21,16.21,0,0,1-.2-6.6A26.42,26.42,0,0,1,249,53.5Zm20.9,9.4c3-6.7,2.6-11-1.4-12.8s-7.6.6-10.7,7.3c-1.5,3.4-2.2,6.1-1.9,8.2a5.26,5.26,0,0,0,3.5,4.5Q265.4,73,269.9,62.9Z"/><path class="cls-2" d="M301.4,60.4c.7.4,1.3.8,1.8,1.1a17.1,17.1,0,0,1,1.4,1.1A18.48,18.48,0,0,1,306,64a10.9,10.9,0,0,1,1.1,1.3l-3.8,22.9,12.9-15.1c.8.5,1.4.9,2,1.3s1.1.8,1.6,1.2a15.93,15.93,0,0,1,1.3,1.3c.5.5.9,1,1.4,1.6L299,106a8.79,8.79,0,0,1-1.3-.7A9.62,9.62,0,0,1,296,104c-.7-.6-1.2-1.1-1.7-1.6s-.8-.9-1-1.2L297,78.4l-12.8,15a25,25,0,0,1-3.4-2.3,22.29,22.29,0,0,1-2.9-3.1Z"/><path class="cls-2" d="M308.7,118c-.6-.6-1-1.1-1.5-1.6l-1.2-1.5c-.3-.5-.7-1.1-1.1-1.8a19.67,19.67,0,0,1-1.2-2.5l36.4-10.8c.6.7,1.1,1.3,1.6,1.9a13.3,13.3,0,0,1,1.4,1.9,14.19,14.19,0,0,1,1.1,1.8c.4.7.8,1.5,1.3,2.3L322,137.5a45.77,45.77,0,0,1-3.3-4c-.4-.6-.7-1.2-1.1-1.8s-.7-1.3-1-2l4.7-5.6a19.92,19.92,0,0,1-2.1-1.9,14,14,0,0,1-1.6-2,22.48,22.48,0,0,1-1.2-2.1,17.25,17.25,0,0,1-1-2.4Zm26.2-9.1-12.7,4.5c.2.6.4,1.1.6,1.6a6.38,6.38,0,0,0,.8,1.4,13.44,13.44,0,0,0,1.1,1.4l1.3,1.3Z"/><path class="cls-2" d="M358.3,131.1c.5.8.8,1.6,1.2,2.3s.6,1.3.8,1.8.4,1.2.6,2,.4,1.6.6,2.5l-26.5,10,4.2,11.2a21.87,21.87,0,0,1-1.9,1.1,11.11,11.11,0,0,1-1.6.7c-.5.2-1.1.4-1.7.6s-1.3.3-2.2.5l-7.4-19.7Z"/><polygon class="cls-1" points="269.8 161.8 237.6 129.6 199.5 167.8 161.3 129.6 129.1 161.8 167.3 200 129.1 238.2 161.3 270.4 199.5 232.2 237.6 270.4 269.8 238.2 231.7 200 269.8 161.8"/></svg>