<?xml version="1.0" encoding="utf-8"?>
<!-- Generator: Adobe Illustrator 24.2.0, SVG Export Plug-In . SVG Version: 6.00 Build 0)  -->
<svg version="1.1" id="Layer_1" xmlns="http://www.w3.org/2000/svg" xmlns:xlink="http://www.w3.org/1999/xlink" x="0px" y="0px"
	 viewBox="0 0 90 90" style="enable-background:new 0 0 90 90;" xml:space="preserve">
<style type="text/css">
	.st0{fill:#D8001B;}
</style>
<g>
	<path class="st0" d="M73.5,17.8c-3.5-3.6-25.2,2.1-33.2,9.9c-3.4,3.3-4,10.9,0.6,16.6l-6.2,6.1l0.2,0.2l0.5,0.6l0.5,0.6l2.5,2.6
		l0,0l6.1-6l6.4-6.2c0.1-0.1,0.1-0.1,0.2-0.2l0.3-0.3c0.7-0.6,0.6-1.8-0.1-2.8c-0.1-0.2-0.3-0.3-0.4-0.5c-0.4-0.4-0.9-0.7-1.3-0.9
		c0.1,0,0.2,0,0.2,0c0.9,0,1.7,0.4,2.3,1c1.3,1.3,1.3,3.4-0.1,4.7l-6.3,6.2c5.6,4.9,13.5,5.8,18.6,1.2
		C72.4,42.9,76.9,21.3,73.5,17.8z"/>
	<path class="st0" d="M36.3,56.3L36,56l-0.3-0.4l0,0L34,54l-0.3-0.3l-0.3-0.4l-0.1-0.1l-0.9-0.9c-0.3-0.3-0.6-0.4-1-0.4
		s-0.8,0.1-1.1,0.4L19.7,62.5l-0.1,0.1l-3.8,3.8c-0.6,0.6-0.6,1.5,0,2l4.3,4.4c0.3,0.3,0.6,0.4,1,0.4s0.8-0.1,1.1-0.4l10.5-10.3
		l0.1-0.1l3.8-3.8c0.6-0.6,0.6-1.5,0-2L36.3,56.3z"/>
</g>
</svg>
