<?xml version="1.0" encoding="utf-8"?>
<!-- Generator: Adobe Illustrator 24.2.0, SVG Export Plug-In . SVG Version: 6.00 Build 0)  -->
<svg version="1.1" id="Layer_1" xmlns="http://www.w3.org/2000/svg" xmlns:xlink="http://www.w3.org/1999/xlink" x="0px" y="0px"
	 viewBox="0 0 90 90" style="enable-background:new 0 0 90 90;" xml:space="preserve">
<style type="text/css">
	.st0{fill:#D8001B;}
</style>
<g>
	<path class="st0" d="M44.7,63.6c10.9,0,19.7-8.8,19.7-19.7c0-6.5-3.2-12.2-8.1-15.8c-1.1-0.8-1.6-0.4-1.6,0.4c-0.4,3-2,7.4-5.8,7.4
		c-2.5-4.4-3.7-9.5-3.1-14.9c0.1-1.3,0.4-2.7,0.7-3.9c0.1-0.4-0.1-0.6-0.4-0.7c-0.3-0.1-0.7,0.2-1.2,0.5c-4.6,3.9-7.7,9.4-8.4,15.8
		c-0.5,4.4,0.2,8.6,1.8,12.4c-5.3-1.5-7.6-8.7-4.5-16.1c0.3-0.5-0.4-1.2-1.4-0.5C28,32.2,25,37.8,25,44C25,54.9,33.8,63.7,44.7,63.6
		z"/>
	<path class="st0" d="M67.8,68.7H22.2c-1.4,0-2.4,1.1-2.4,2.4c0,1.4,1.1,2.4,2.4,2.4h45.6c1.4,0,2.4-1.1,2.4-2.4
		C70.2,69.8,69.2,68.7,67.8,68.7z"/>
</g>
</svg>
