<?xml version="1.0" encoding="utf-8"?>
<!-- Generator: Adobe Illustrator 24.2.0, SVG Export Plug-In . SVG Version: 6.00 Build 0)  -->
<svg version="1.1" id="Layer_1" xmlns="http://www.w3.org/2000/svg" xmlns:xlink="http://www.w3.org/1999/xlink" x="0px" y="0px"
	 viewBox="0 0 90 90" style="enable-background:new 0 0 90 90;" xml:space="preserve">
<style type="text/css">
	.st0{fill:#D8001B;}
</style>
<g>
	<path class="st0" d="M15.4,51.5c-1.3,1.3-1.3,3.3,0,4.6l1.7,1.7l4-1.6l-1.5,4l8.4,8.4l6.4-3.7l-3.3,6.9l2.8,2.8
		c1.3,1.3,3.4,1.3,4.6,0l15.1-15.1L30.5,36.4L15.4,51.5z"/>
	<path class="st0" d="M73.6,16.4L73.6,16.4c-1.6-1.6-3.6-2.2-5.9-1.8c-4.5,0.8-9.3,5.8-12.8,13.2c-1,2.1-2.3,3.2-4.1,3.6
		c-3.5,0.6-8-1.9-10.6-4.6c-0.6-0.6-1.5-0.6-2,0l-2.8,2.8l4.1,4.1c0.5,0.5,0.5,1.4,0,1.9s-1.4,0.5-1.9,0l-4.1-4.1l-1,1
		c-0.6,0.6-0.6,1.5,0,2l23,23c0.6,0.6,1.5,0.6,2,0l5.7-5.7c0.6-0.6,0.6-1.5,0-2c-2.6-2.6-5.2-7.1-4.6-10.6c0.3-1.8,1.5-3.2,3.6-4.1
		c7.5-3.4,12.4-8.2,13.2-12.8C75.9,20,75.2,18,73.6,16.4z M68.9,24.5c-1.8,0-3.2-1.4-3.2-3.2c0-1.8,1.4-3.2,3.2-3.2
		c1.8,0,3.2,1.4,3.2,3.2S70.6,24.5,68.9,24.5z"/>
</g>
</svg>
