<?xml version="1.0" encoding="utf-8"?>
<!-- Generator: Adobe Illustrator 24.2.0, SVG Export Plug-In . SVG Version: 6.00 Build 0)  -->
<svg version="1.1" id="Layer_1" xmlns="http://www.w3.org/2000/svg" xmlns:xlink="http://www.w3.org/1999/xlink" x="0px" y="0px"
	 viewBox="0 0 90 90" style="enable-background:new 0 0 90 90;" xml:space="preserve">
<style type="text/css">
	.st0{fill:#D8001B;}
</style>
<path class="st0" d="M73.2,24.2L29,13.7c-1.5-0.4-3.1,0.6-3.4,2.1L20.3,37c-0.4,1.5,0.6,3.1,2.1,3.5l0,0L36.6,44v8.7
	c-1.5,0.9-2.6,2.5-2.8,4.3l-10.5,3.2v-9.8h-6.4v25.9h6.4v-9.5l13.1-4c2.8,1.9,6.6,1.1,8.5-1.7s1.1-6.6-1.7-8.5v-7.1l12.9,3.6
	c1.2,0.3,2.5-0.2,3.2-1.3L65,38l5.2,1l2.7-11.3l-2-0.5L73.2,24.2z"/>
</svg>
